<?xml version="1.0" standalone="no"?>
<!DOCTYPE svg PUBLIC "-//W3C//DTD SVG 20010904//EN"
 "http://www.w3.org/TR/2001/REC-SVG-20010904/DTD/svg10.dtd">
<svg version="1.0" xmlns="http://www.w3.org/2000/svg"
 width="200.000000pt" height="200.000000pt" viewBox="0 0 200.000000 200.000000"
 preserveAspectRatio="xMidYMid meet">
<metadata>
Created by potrace 1.14, written by Peter Selinger 2001-2017
</metadata>
<g transform="translate(0.000000,200.000000) scale(0.100000,-0.100000)"
fill="#000000" stroke="none">
<path d="M457 1834 c-1 -1 -27 -4 -57 -8 -30 -3 -66 -8 -80 -11 -14 -3 -36 -7
-50 -10 -23 -4 -35 -8 -95 -31 -11 -4 -26 -8 -34 -10 -8 -1 -18 -9 -22 -16 -5
-7 -9 -9 -9 -5 0 4 -10 -1 -22 -13 -12 -11 -24 -20 -28 -20 -15 0 -37 -60 -38
-103 0 -27 -3 -51 -6 -54 -3 -4 -1 -12 5 -19 7 -9 7 -19 0 -33 -7 -12 -7 -22
-1 -26 6 -3 6 -15 0 -30 -6 -15 -6 -27 0 -30 5 -3 7 -12 4 -19 -4 -11 12 -14
80 -14 55 1 86 5 87 12 0 6 0 67 1 136 0 114 2 127 21 148 35 38 99 63 222 87
36 7 210 7 245 0 14 -3 34 -7 46 -9 91 -18 167 -55 186 -90 8 -12 13 -70 14
-141 1 -66 2 -125 3 -132 1 -8 26 -11 84 -10 l82 2 0 140 0 140 -29 33 c-24
26 -119 83 -148 88 -5 1 -10 3 -13 4 -3 1 -8 3 -12 4 -134 33 -168 37 -316 40
-65 1 -119 1 -120 0z"/>
<path d="M1960 1764 c-19 -8 -43 -17 -52 -20 -10 -4 -15 -10 -12 -15 3 -5 0
-9 -6 -9 -6 0 -22 -12 -35 -27 -22 -27 -24 -35 -23 -170 l0 -141 84 1 84 1 0
198 c0 109 -1 198 -2 197 -2 0 -19 -7 -38 -15z"/>
<path d="M57 1332 l-38 -3 2 -65 c1 -35 -1 -67 -4 -71 -4 -3 -2 -12 4 -19 7
-9 7 -19 0 -33 -7 -12 -7 -22 -1 -26 6 -3 6 -15 0 -29 -5 -15 -5 -27 2 -34 7
-7 6 -16 -1 -30 -7 -13 -7 -23 -1 -27 6 -3 6 -15 0 -29 -5 -15 -5 -27 2 -34 7
-7 6 -16 -1 -30 -7 -13 -7 -23 -1 -27 6 -3 6 -15 0 -29 -5 -15 -5 -27 2 -34 7
-7 6 -16 -1 -30 -7 -13 -7 -23 -1 -27 6 -3 6 -15 0 -29 -5 -15 -5 -27 2 -34 7
-7 6 -16 -1 -30 -7 -13 -7 -23 -1 -27 6 -3 6 -15 0 -29 -7 -19 -4 -28 12 -43
14 -12 18 -13 13 -3 -7 12 -6 13 6 5 15 -12 124 -13 135 -3 4 5 9 614 5 745
-1 18 -8 22 -48 25 -27 1 -65 2 -86 0z"/>
<path d="M983 1332 c-32 -2 -54 -8 -54 -15 -6 -51 -4 -735 2 -747 5 -11 23
-15 76 -14 37 1 73 2 78 3 7 1 11 129 11 385 l-1 384 -30 4 c-16 2 -54 2 -82
0z"/>
<path d="M1903 1330 l-72 -5 0 -377 c0 -279 4 -380 12 -385 17 -11 87 -10 87
0 0 6 5 6 13 1 6 -5 21 -9 32 -9 20 0 20 8 22 388 2 226 -1 386 -6 382 -5 -3
-11 -2 -13 2 -1 5 -35 6 -75 3z"/>
<path d="M47 502 c-28 -3 -28 -4 -26 -73 1 -38 -1 -72 -5 -76 -3 -3 -1 -12 5
-19 7 -9 7 -19 0 -33 -7 -12 -7 -22 -1 -26 6 -3 6 -15 0 -29 -5 -15 -5 -27 2
-34 7 -7 6 -16 -1 -30 -7 -13 -7 -23 -1 -27 6 -3 6 -15 0 -29 -5 -15 -5 -27 2
-34 7 -7 6 -16 -1 -30 -7 -13 -7 -23 -1 -27 5 -3 7 -12 3 -20 -4 -13 9 -15 81
-15 82 0 86 1 87 23 3 127 0 469 -5 474 -7 7 -95 10 -139 5z"/>
<path d="M937 500 c-10 -4 -15 -135 -8 -222 1 -23 59 -88 77 -88 8 0 14 -4 14
-8 0 -7 62 -34 75 -32 3 0 19 -7 36 -16 17 -8 33 -13 36 -10 3 2 17 0 31 -5
42 -16 80 -20 237 -24 158 -4 274 10 369 42 28 9 53 18 56 18 19 3 89 48 110
70 23 25 25 34 28 151 3 114 2 124 -15 125 -22 1 -123 1 -140 0 -8 -1 -11 -33
-10 -111 1 -61 -1 -110 -5 -110 -5 0 -8 -6 -8 -13 0 -19 -80 -78 -105 -77 -3
0 -7 -1 -10 -1 -3 -1 -9 -3 -15 -4 -5 -1 -11 -3 -12 -5 -19 -15 -308 -34 -308
-20 0 3 -21 6 -47 7 -27 2 -55 6 -63 9 -8 4 -20 8 -25 9 -6 2 -32 12 -58 24
-71 33 -83 58 -82 185 1 100 0 106 -19 107 -83 4 -128 3 -139 -1z"/>
</g>
</svg>
