<svg xmlns="http://www.w3.org/2000/svg" viewBox="0 0 2585.87 1789.28"><defs><style>.cls-1{fill:#fbde1b;}.cls-2{fill:#237131;}.cls-3{fill:#000;}</style></defs><g id="Слой_3" data-name="Слой 3"><path class="cls-1" d="M1484.42,472.47h311.7a51.45,51.45,0,0,1,51.31,48.47,51.45,51.45,0,0,1-51.31,48.46h-169.7v24h169.7a75.5,75.5,0,0,0,75.17-69.54h.22v-6h-.24a75.48,75.48,0,0,0-75.15-69.39h-311.7c-28.89,0-52.39-23.05-52.39-51.39s23.5-51.39,52.39-51.39h722.35a51.39,51.39,0,0,1,0,102.78H2006.42A75.48,75.48,0,0,0,1931,523.86V524a75.48,75.48,0,0,0,75.39,75.39h261.35v-24H2006.42A51.45,51.45,0,0,1,1955,524v-.15a51.45,51.45,0,0,1,51.39-51.39h200.35a75.39,75.39,0,0,0,0-150.78H1484.42a76.43,76.43,0,0,0-53.72,22,74.23,74.23,0,0,0,0,106.8A76.43,76.43,0,0,0,1484.42,472.47Z"/><path class="cls-1" d="M439.71,651.82c0-28.34,23.5-51.39,52.39-51.39H695.8A75.48,75.48,0,0,0,771.19,525v-.16a75.48,75.48,0,0,0-75.39-75.39H492.1c-28.89,0-52.39-23.05-52.39-51.38s23.5-51.39,52.39-51.39h778.71a51.39,51.39,0,1,1,0,102.77H906.1a75.47,75.47,0,0,0-75.38,75.39V525a75.47,75.47,0,0,0,75.38,75.39h587.71a51.45,51.45,0,0,1,51.39,51.39h24a75.48,75.48,0,0,0-75.39-75.39H906.1A51.44,51.44,0,0,1,854.72,525v-.16a51.45,51.45,0,0,1,51.38-51.39h364.71a75.39,75.39,0,1,0,0-150.77H492.1a76.43,76.43,0,0,0-53.72,22,74.22,74.22,0,0,0,0,106.79,76.43,76.43,0,0,0,53.72,22H695.8a51.45,51.45,0,0,1,51.39,51.39V525a51.44,51.44,0,0,1-51.39,51.39H492.1a76.43,76.43,0,0,0-53.72,22,74.26,74.26,0,0,0-22.67,53.4V824h24Z"/><path class="cls-1" d="M462.1,1127.59a186.51,186.51,0,0,0,23.77,1.52c25.91,0,52.31-5.33,78.76-15.93,26.91-10.79,31-26.88,29.74-38.47-1.56-14.14-12.22-29-32.58-45.32-16-12.85-38.25-26.7-64.38-40.05-49-25-106.35-45.78-142.8-51.67l-3.83,23.69c34.21,5.54,88.75,25.37,135.71,49.36,60,30.63,82.75,55,84,66.63.54,4.84-4.45,9.39-14.82,13.55-56.9,22.8-111.55,18.23-162.45-13.6-40.1-25.08-68.78-61.72-93-118.81a211.19,211.19,0,0,0-31.33-51.91c57.6-9.22,215.22-27.25,284.74,37.09L570,926.05c-22.39-20.71-53.87-35.56-93.59-44.14-31-6.7-67.15-9.64-107.49-8.75A750.7,750.7,0,0,0,242.35,887l-24,5.15,18.85,15.81c.24.2,24.36,20.72,41,59.94,26.25,61.91,57.82,101.94,102.35,129.79C406.52,1113.9,434,1124,462.1,1127.59Z"/><path class="cls-1" d="M618.84,1336.87l5.69-3.61c48.1-30.46,97.84-62,112.72-131.22,3.9-18.13-2.47-29.51-8.49-35.87-8.52-9-26.54-18.43-64.06-12.44a272.78,272.78,0,0,0-94.15,32.5c-53,29.94-95.3,76.45-125.74,138.23l21.53,10.6c43.85-89,113.75-143.51,202.15-157.63,20.59-3.29,36.61-1.32,42.85,5.25,1.11,1.18,4.5,4.76,2.45,14.32-12.77,59.41-56.16,86.89-102.1,116l-5.72,3.62c-50.63,32.16-109.31,45.2-149.62,50.47a475.39,475.39,0,0,1-66.53,4.07c13.79-27.81,14.45-51.34,15.08-74.16.18-6.8.36-13.23.88-19.8,4.05-50.76,34.8-87,91.38-107.71,44.05-16.12,87.76-16.37,88.2-16.37v-24c-1.93,0-47.85.2-95.82,17.61-65.63,23.82-102.86,68.28-107.67,128.56-.57,7.19-.77,14.24-1,21-.62,22.54-1.21,43.83-15.2,69.16l13.67,7.56-1.44,21.73c.59,0,6.71.43,17,.43a505.73,505.73,0,0,0,63.93-4.25C501.76,1385.39,564.32,1371.5,618.84,1336.87Z"/><path class="cls-1" d="M1205,1132.6V738.33a63,63,0,0,0-62.94-62.94h-60.17a63,63,0,0,0-62.24,53.51l-53.21,351.28a31,31,0,0,1-30.73,26.5c-.84,0-85-.63-110.8-.52-6,0-12.21.18-18.81.34-76.56,1.83-181.42,4.35-200.17-168.24-8.05-74.11,12.24-135,60.32-181,27.12-26,57.06-41,75.66-48.63-4.06,35.48-2,47.85,4.12,83.7.68,4.05,1.43,8.42,2.22,13.18,2.07,12.44,4.36,25.35,6.58,37.85,13.74,77.48,29.31,165.31.61,194-2.63,2.63-6.23,6.22-15.42-.94-18.25-14.22-37.84-55.9-47.64-101.36-11.29-52.37-8.24-98.38,8.37-126.25l-20.62-12.29c-19.68,33-23.77,85.37-11.21,143.6,11.22,52.08,33.34,97.31,56.35,115.23,16.22,12.64,33.84,12.26,47.13-1,17.6-17.57,24.87-46.83,22.9-92.08-1.63-37.25-9.36-80.88-16.84-123.06-2.21-12.44-4.49-25.29-6.54-37.61-.79-4.78-1.54-9.17-2.23-13.24-7.05-41.61-8.14-48-1.51-95.91l2.52-18.27L753,679.19c-9.52,2.73-59.26,18.51-103.32,60.69a220.36,220.36,0,0,0-53.58,79.44c-14.13,36.2-18.84,77.08-14,121.53,19,174.64,123.56,190,199.81,190,8.69,0,17-.2,24.8-.39,6.48-.16,12.61-.3,18.35-.33,25.61-.12,109.65.51,110.59.52a55.18,55.18,0,0,0,54.55-46.91L1043.4,732.5a38.72,38.72,0,0,1,38.51-33.11h60.17A39,39,0,0,1,1181,738.33V1132.6Z"/><path class="cls-1" d="M1276,1337.74H897.3a51.44,51.44,0,0,1-51.39-51.39v-.15a51.44,51.44,0,0,1,51.39-51.39h520.25c23.79.57,42.54-6.08,55.72-19.78,19.45-20.22,19-48.55,18.82-52.72V742.46A67.14,67.14,0,0,0,1425,675.39H1320.6a67.14,67.14,0,0,0-67.07,67.07V1132.6h24V922h190.56v240.94l0,.39c0,.21,1,21.54-12.26,35.2-8.34,8.59-21.08,12.73-37.84,12.29H897.3a75.48,75.48,0,0,0-75.39,75.39v.15a75.48,75.48,0,0,0,75.39,75.39H1276a51.39,51.39,0,1,1,0,102.78H489.29a51.44,51.44,0,0,1-51.39-51.39h-24a75.48,75.48,0,0,0,75.39,75.39H1276a75.39,75.39,0,1,0,0-150.78ZM1277.53,898V742.46a43.12,43.12,0,0,1,43.07-43.07H1425a43.12,43.12,0,0,1,43.07,43.07V898Z"/><path class="cls-1" d="M2285.08,1132.6V725a51.06,51.06,0,0,0-51-51h-.2a51.18,51.18,0,0,0-50,40.89l-74.79,372.91a27.09,27.09,0,0,1-26.47,21.64h-3.85a27.09,27.09,0,0,1-26.46-21.61l-74.8-373a51,51,0,0,0-101,10.13v406.18h24V725a27,27,0,0,1,53.46-5.39l74.81,373a51.16,51.16,0,0,0,50,40.87h3.85a51.16,51.16,0,0,0,50-40.89l74.8-372.91A27.09,27.09,0,0,1,2233.87,698h.2a27,27,0,0,1,27,27v440.27c-.89,27.6-24.55,49.79-53.51,49.79H2013.42c-42.74,0-77.51,33.82-77.51,75.39v.15c0,41.57,34.77,75.39,77.51,75.39h194.15c29.53,0,53.55,23.06,53.55,51.39s-24,51.39-53.55,51.39H1478.3c-29.53,0-53.55-23-53.55-51.39s24-51.39,53.55-51.39h264c42.73,0,77.51-33.82,77.51-75.39L1818.75,730a54.67,54.67,0,0,0-108.08-11.78l-80.87,369.44a29.76,29.76,0,0,1-58.84-6.42V652.06h-24v429.18a53.72,53.72,0,0,0,106.2,11.58l80.87-369.45A30.72,30.72,0,0,1,1794.8,730l1.08,560.43v.15c0,28.34-24,51.39-53.55,51.39h-264c-42.74,0-77.51,33.82-77.51,75.39s34.77,75.39,77.51,75.39h729.27c42.74,0,77.51-33.82,77.51-75.39s-34.77-75.39-77.51-75.39H2013.42c-29.53,0-53.55-23-53.55-51.39v-.15c0-28.34,24-51.39,53.55-51.39h194.15c40.75,0,74.23-30.75,77.26-69.65h0v-.31c.14-1.8.23-3.6.23-5.43h-.23V1132.6Z"/><path class="cls-2" d="M447,1108.21a184.7,184.7,0,0,0,23.77,1.52c25.91,0,52.31-5.33,78.75-15.93,26.92-10.79,31-26.88,29.75-38.47-1.57-14.14-12.22-29-32.58-45.32-16-12.85-38.25-26.7-64.39-40-49-25-106.35-45.78-142.79-51.67L335.66,942c34.21,5.54,88.75,25.37,135.7,49.36,60,30.63,82.75,55,84,66.63.53,4.84-4.45,9.4-14.82,13.55-56.9,22.8-111.56,18.22-162.46-13.6-40.09-25.08-68.77-61.72-93-118.81A210.87,210.87,0,0,0,253.8,887.2C311.4,878,469,860,538.55,924.29l16.3-17.62C532.47,886,501,871.11,461.27,862.53c-31-6.7-67.15-9.64-107.49-8.75a751.08,751.08,0,0,0-126.56,13.8L203,872.75l19.08,15.81c.24.2,24.18,20.33,41,59.92,26.26,61.91,57.82,101.94,102.36,129.79C391.4,1094.52,418.84,1104.6,447,1108.21Z"/><path class="cls-2" d="M649.58,1135.33c-14.75,2.36-53.79,10.8-97.54,38.21-54.66,34.25-97.39,85.16-127,151.32l21.9,9.8c63.84-142.57,174.15-170.47,206.44-175.63,20.44-3.27,36.84-.86,43.88,6.44,3.57,3.7,4.68,8.72,3.37,15.33-11.43,58-56.3,86.94-103.8,117.56l-6.05,3.9c-71.77,46.4-174.88,52.93-213.7,53.67,6.17-24.12,9.09-49.59,11.73-72.56.85-7.48,1.66-14.54,2.55-21.27,7.27-55.25,38.9-93.26,94-112.95,42.59-15.22,83.85-13.42,84.26-13.41l1.2-24c-1.85-.09-45.82-2.09-92.81,14.52-63.82,22.56-102,68.44-110.47,132.68-.91,6.93-1.73,14.09-2.6,21.67-3.08,26.89-6.58,57.37-15.26,83.49l-5.06,15.2,16,.58c.43,0,3.59.12,9,.12a590.63,590.63,0,0,0,75.91-5.24c64.57-8.61,117.81-26.23,158.25-52.38l6-3.88c24.07-15.51,48.95-31.55,69.63-52.06,24-23.86,38.68-50.37,44.72-81,2.81-14.26-.61-27.27-9.65-36.63C701.67,1135.48,678.61,1130.69,649.58,1135.33Z"/><path class="cls-2" d="M860.4,1088.48c-.25,0-24.92.21-50.59.33-6.51,0-13.33.22-20.55.43-36.56,1-82.06,2.32-119.63-18.12-43.83-23.85-69.61-73-78.82-150.34C582,846.85,602.06,786,650.42,740c27.3-26,57.62-41.12,76.39-48.76-4.06,35.51-2,47.87,4.12,83.73.68,4,1.42,8.42,2.22,13.18,2.07,12.44,4.36,25.35,6.57,37.85,13.74,77.48,29.32,165.31.62,194-2.63,2.63-6.23,6.22-15.42-.94-18.25-14.22-37.85-55.9-47.65-101.36C666,865.27,669,819.25,685.64,791.38L665,779.09c-19.68,33-23.77,85.37-11.22,143.6,11.23,52.08,33.35,97.31,56.36,115.23,16.22,12.64,33.84,12.26,47.13-1,17.6-17.57,24.87-46.83,22.9-92.08-1.63-37.25-9.37-80.88-16.85-123.06-2.2-12.43-4.48-25.29-6.53-37.61-.8-4.78-1.54-9.17-2.23-13.24-7.05-41.61-8.14-48-1.51-95.91l2.52-18.27-17.72,5.09c-9.62,2.76-59.81,18.66-104,60.75a218.06,218.06,0,0,0-53.7,79.5c-14,36.22-18.48,77.11-13.19,121.53,5.34,44.85,16.44,82.07,33,110.65,14.75,25.46,34.32,45,58.18,57.93,33.68,18.32,70.88,21.53,104.32,21.53,9.51,0,18.72-.26,27.45-.5,7.08-.2,13.76-.39,20-.42,25.71-.12,50.43-.33,50.68-.33Z"/><rect class="cls-3" x="1600.75" y="554.34" width="139.24" height="24"/><path class="cls-3" d="M1749.59,657.87a55.13,55.13,0,0,0-53.5,43l-81,369.44a29.83,29.83,0,0,1-59-6.42V657.71h-24v406.18a53.82,53.82,0,0,0,106.39,11.58l81-369.45a30.78,30.78,0,0,1,60.84,6.63V1118h24V712.65A54.84,54.84,0,0,0,1749.59,657.87Z"/><path class="cls-3" d="M1127,658h-60.18a62.94,62.94,0,0,0-62.23,53.51l-53.21,351.28a31,31,0,0,1-30.82,26.5H887.76v24h32.76a55.18,55.18,0,0,0,54.55-46.91l53.21-351.27a38.71,38.71,0,0,1,38.5-33.11H1127A39,39,0,0,1,1165.9,721v394.27h24V721A63,63,0,0,0,1127,658Z"/><path class="cls-3" d="M2219,656.65h-.21a51.18,51.18,0,0,0-50,40.89L2094,1070.45a27.1,27.1,0,0,1-26.47,21.64h-3.85a27.09,27.09,0,0,1-26.46-21.61l-74.8-373a51,51,0,0,0-101,10.13v406.18h24V707.65a27,27,0,0,1,53.47-5.39l74.8,373a51.18,51.18,0,0,0,50,40.87h3.85a51.17,51.17,0,0,0,50-40.89l74.8-372.91a27.08,27.08,0,0,1,26.46-21.64h.21a27,27,0,0,1,27,27v407.6h24V707.65A51.06,51.06,0,0,0,2219,656.65Z"/><path class="cls-3" d="M1409.89,658H1305.48a67.14,67.14,0,0,0-67.07,67.07v390.14h24V904.65H1453v210.6h24V725.11A67.14,67.14,0,0,0,1409.89,658ZM1453,880.65H1262.41V725.11A43.12,43.12,0,0,1,1305.48,682h104.41A43.13,43.13,0,0,1,1453,725.11Z"/></g></svg>